<svg width="162" height="162" viewBox="0 0 162 162" fill="none" xmlns="http://www.w3.org/2000/svg">
<rect width="162" height="162" fill="#00AB37"/>
<path d="M40.9205 147.273V156H39.8977L35.1421 149.148H35.0568V156H34V147.273H35.0227L39.7955 154.142H39.8807V147.273H40.9205ZM47.0238 153.324V149.455H48.0295V156H47.0238V154.892H46.9556C46.8022 155.224 46.5636 155.507 46.2397 155.74C45.9159 155.97 45.5068 156.085 45.0124 156.085C44.6034 156.085 44.2397 155.996 43.9215 155.817C43.6034 155.635 43.3534 155.362 43.1715 154.999C42.9897 154.632 42.8988 154.17 42.8988 153.614V149.455H43.9045V153.545C43.9045 154.023 44.038 154.403 44.3051 154.688C44.5749 154.972 44.9187 155.114 45.3363 155.114C45.5863 155.114 45.8406 155.05 46.0991 154.922C46.3605 154.794 46.5792 154.598 46.7553 154.334C46.9343 154.07 47.0238 153.733 47.0238 153.324ZM45.0124 148.568L46.0522 146.591H47.2284L45.8988 148.568H45.0124ZM49.8715 156V149.455H50.8431V150.477H50.9283C51.0646 150.128 51.2848 149.857 51.5888 149.663C51.8928 149.467 52.2578 149.369 52.684 149.369C53.1158 149.369 53.4752 149.467 53.7621 149.663C54.0519 149.857 54.2777 150.128 54.4396 150.477H54.5078C54.6754 150.139 54.9269 149.871 55.2621 149.672C55.5973 149.47 55.9993 149.369 56.4681 149.369C57.0533 149.369 57.532 149.553 57.9041 149.919C58.2763 150.283 58.4624 150.849 58.4624 151.619V156H57.4567V151.619C57.4567 151.136 57.3246 150.791 57.0604 150.584C56.7962 150.376 56.4851 150.273 56.1271 150.273C55.6669 150.273 55.3104 150.412 55.0575 150.69C54.8047 150.966 54.6783 151.315 54.6783 151.739V156H53.6556V151.517C53.6556 151.145 53.5348 150.845 53.2933 150.618C53.0519 150.388 52.7408 150.273 52.3601 150.273C52.0987 150.273 51.8544 150.342 51.6271 150.482C51.4027 150.621 51.2209 150.814 51.0817 151.061C50.9453 151.305 50.8771 151.588 50.8771 151.909V156H49.8715ZM63.0455 156.136C62.4148 156.136 61.8708 155.997 61.4134 155.719C60.9588 155.438 60.608 155.045 60.3608 154.543C60.1165 154.037 59.9943 153.449 59.9943 152.778C59.9943 152.108 60.1165 151.517 60.3608 151.006C60.608 150.491 60.9517 150.091 61.3921 149.804C61.8352 149.514 62.3523 149.369 62.9432 149.369C63.2841 149.369 63.6208 149.426 63.9531 149.54C64.2855 149.653 64.5881 149.838 64.8608 150.094C65.1335 150.347 65.3509 150.682 65.5128 151.099C65.6747 151.517 65.7557 152.031 65.7557 152.642V153.068H60.7102V152.199H64.733C64.733 151.83 64.6591 151.5 64.5114 151.21C64.3665 150.92 64.1591 150.692 63.8892 150.524C63.6222 150.357 63.3068 150.273 62.9432 150.273C62.5426 150.273 62.196 150.372 61.9034 150.571C61.6137 150.767 61.3906 151.023 61.2344 151.338C61.0781 151.653 61 151.991 61 152.352V152.932C61 153.426 61.0852 153.845 61.2557 154.189C61.429 154.53 61.6691 154.79 61.9759 154.969C62.2827 155.145 62.6392 155.233 63.0455 155.233C63.3097 155.233 63.5483 155.196 63.7614 155.122C63.9773 155.045 64.1634 154.932 64.3196 154.781C64.4759 154.628 64.5966 154.437 64.6818 154.21L65.6534 154.483C65.5512 154.812 65.3793 155.102 65.1378 155.352C64.8963 155.599 64.598 155.793 64.2429 155.932C63.8878 156.068 63.4887 156.136 63.0455 156.136ZM67.2855 156V149.455H68.2571V150.443H68.3253C68.4446 150.119 68.6605 149.857 68.973 149.655C69.2855 149.453 69.6378 149.352 70.0298 149.352C70.1037 149.352 70.196 149.354 70.3068 149.357C70.4176 149.359 70.5014 149.364 70.5583 149.369V150.392C70.5242 150.384 70.446 150.371 70.3239 150.354C70.2046 150.334 70.0781 150.324 69.9446 150.324C69.6264 150.324 69.3423 150.391 69.0923 150.524C68.8452 150.655 68.6492 150.837 68.5043 151.07C68.3622 151.3 68.2912 151.562 68.2912 151.858V156H67.2855ZM74.2102 156.136C73.6193 156.136 73.1009 155.996 72.6548 155.714C72.2117 155.433 71.8651 155.04 71.6151 154.534C71.3679 154.028 71.2443 153.437 71.2443 152.761C71.2443 152.08 71.3679 151.484 71.6151 150.976C71.8651 150.467 72.2117 150.072 72.6548 149.791C73.1009 149.51 73.6193 149.369 74.2102 149.369C74.8012 149.369 75.3182 149.51 75.7614 149.791C76.2074 150.072 76.554 150.467 76.8012 150.976C77.0512 151.484 77.1762 152.08 77.1762 152.761C77.1762 153.437 77.0512 154.028 76.8012 154.534C76.554 155.04 76.2074 155.433 75.7614 155.714C75.3182 155.996 74.8012 156.136 74.2102 156.136ZM74.2102 155.233C74.6591 155.233 75.0284 155.118 75.3182 154.888C75.608 154.658 75.8225 154.355 75.9617 153.98C76.1009 153.605 76.1705 153.199 76.1705 152.761C76.1705 152.324 76.1009 151.916 75.9617 151.538C75.8225 151.161 75.608 150.855 75.3182 150.622C75.0284 150.389 74.6591 150.273 74.2102 150.273C73.7614 150.273 73.3921 150.389 73.1023 150.622C72.8125 150.855 72.598 151.161 72.4588 151.538C72.3196 151.916 72.25 152.324 72.25 152.761C72.25 153.199 72.3196 153.605 72.4588 153.98C72.598 154.355 72.8125 154.658 73.1023 154.888C73.3921 155.118 73.7614 155.233 74.2102 155.233ZM84.5579 156.136C84.0124 156.136 83.5309 155.999 83.1133 155.723C82.6957 155.445 82.369 155.053 82.1332 154.547C81.8974 154.038 81.7795 153.438 81.7795 152.744C81.7795 152.057 81.8974 151.46 82.1332 150.955C82.369 150.449 82.6971 150.058 83.1176 149.783C83.538 149.507 84.0238 149.369 84.5749 149.369C85.0011 149.369 85.3377 149.44 85.5849 149.582C85.8349 149.722 86.0252 149.881 86.1559 150.06C86.2894 150.236 86.3931 150.381 86.467 150.494H86.5522V147.273H87.5579V156H86.5863V154.994H86.467C86.3931 155.114 86.288 155.264 86.1517 155.446C86.0153 155.625 85.8207 155.786 85.5678 155.928C85.315 156.067 84.9784 156.136 84.5579 156.136ZM84.6943 155.233C85.0977 155.233 85.4386 155.128 85.717 154.918C85.9954 154.705 86.207 154.411 86.3519 154.036C86.4968 153.658 86.5693 153.222 86.5693 152.727C86.5693 152.239 86.4982 151.811 86.3562 151.445C86.2142 151.075 86.0039 150.788 85.7255 150.584C85.4471 150.376 85.1034 150.273 84.6943 150.273C84.2681 150.273 83.913 150.382 83.6289 150.601C83.3477 150.817 83.136 151.111 82.994 151.483C82.8548 151.852 82.7852 152.267 82.7852 152.727C82.7852 153.193 82.8562 153.616 82.9982 153.997C83.1431 154.375 83.3562 154.676 83.6374 154.901C83.9215 155.122 84.2738 155.233 84.6943 155.233ZM91.4656 156.153C91.0508 156.153 90.6744 156.075 90.3363 155.919C89.9982 155.76 89.7298 155.531 89.5309 155.233C89.332 154.932 89.2326 154.568 89.2326 154.142C89.2326 153.767 89.3065 153.463 89.4542 153.23C89.6019 152.994 89.7994 152.81 90.0465 152.676C90.2937 152.543 90.5664 152.443 90.8647 152.378C91.1659 152.31 91.4684 152.256 91.7724 152.216C92.1702 152.165 92.4922 152.126 92.7402 152.101C92.9902 152.072 93.1712 152.026 93.2852 151.96C93.4012 151.895 93.4602 151.781 93.4602 151.619V151.585C93.4602 151.165 93.3452 150.838 93.1152 150.605C92.8872 150.372 92.5422 150.256 92.0792 150.256C91.5991 150.256 91.2227 150.361 90.9499 150.571C90.6772 150.781 90.4855 151.006 90.3747 151.244L89.4201 150.903C89.5906 150.506 89.8178 150.196 90.1019 149.974C90.3889 149.75 90.7014 149.594 91.0394 149.506C91.3803 149.415 91.7156 149.369 92.0452 149.369C92.2552 149.369 92.4972 149.395 92.7692 149.446C93.0452 149.494 93.3112 149.595 93.5662 149.749C93.8252 149.902 94.0392 150.134 94.2102 150.443C94.3802 150.753 94.4652 151.168 94.4652 151.688V156H93.4602V155.114H93.4092C93.3402 155.256 93.2272 155.408 93.0682 155.57C92.9092 155.732 92.6972 155.869 92.4332 155.983C92.1682 156.097 91.8463 156.153 91.4656 156.153ZM91.619 155.25C92.0172 155.25 92.3522 155.172 92.6242 155.016C92.9002 154.859 93.1072 154.658 93.2472 154.411C93.3892 154.163 93.4602 153.903 93.4602 153.631V152.71C93.4172 152.761 93.3232 152.808 93.1782 152.851C93.0362 152.891 92.8722 152.926 92.6842 152.957C92.4992 152.986 92.3192 153.011 92.1432 153.034C91.9702 153.054 91.8292 153.071 91.7213 153.085C91.4599 153.119 91.2156 153.175 90.9883 153.251C90.7639 153.325 90.582 153.437 90.4428 153.588C90.3065 153.736 90.2383 153.937 90.2383 154.193C90.2383 154.543 90.3676 154.807 90.6261 154.986C90.8874 155.162 91.2184 155.25 91.619 155.25ZM104.312 150.92L103.409 151.176C103.352 151.026 103.268 150.879 103.157 150.737C103.05 150.592 102.902 150.473 102.714 150.379C102.527 150.286 102.287 150.239 101.994 150.239C101.594 150.239 101.26 150.331 100.993 150.516C100.729 150.697 100.596 150.929 100.596 151.21C100.596 151.46 100.687 151.658 100.869 151.803C101.051 151.947 101.335 152.068 101.721 152.165L102.693 152.403C103.278 152.545 103.714 152.763 104.001 153.055C104.288 153.345 104.432 153.719 104.432 154.176C104.432 154.551 104.324 154.886 104.108 155.182C103.895 155.477 103.596 155.71 103.213 155.881C102.829 156.051 102.383 156.136 101.875 156.136C101.207 156.136 100.655 155.991 100.217 155.702C99.7802 155.412 99.5032 154.989 99.3862 154.432L100.341 154.193C100.432 154.545 100.604 154.81 100.856 154.986C101.112 155.162 101.446 155.25 101.858 155.25C102.327 155.25 102.699 155.151 102.974 154.952C103.253 154.75 103.392 154.509 103.392 154.227C103.392 154 103.312 153.81 103.153 153.656C102.994 153.5 102.75 153.384 102.42 153.307L101.329 153.051C100.73 152.909 100.29 152.689 100.008 152.391C99.7302 152.089 99.5912 151.713 99.5912 151.261C99.5912 150.892 99.6942 150.565 99.9022 150.281C100.112 149.997 100.398 149.774 100.758 149.612C101.122 149.45 101.534 149.369 101.994 149.369C102.642 149.369 103.15 149.511 103.52 149.795C103.892 150.08 104.156 150.455 104.312 150.92ZM108.605 156.136C108.014 156.136 107.495 155.996 107.049 155.714C106.606 155.433 106.259 155.04 106.009 154.534C105.762 154.028 105.639 153.437 105.639 152.761C105.639 152.08 105.762 151.484 106.009 150.976C106.259 150.467 106.606 150.072 107.049 149.791C107.495 149.51 108.014 149.369 108.605 149.369C109.195 149.369 109.713 149.51 110.156 149.791C110.602 150.072 110.948 150.467 111.195 150.976C111.445 151.484 111.57 152.08 111.57 152.761C111.57 153.437 111.445 154.028 111.195 154.534C110.948 155.04 110.602 155.433 110.156 155.714C109.713 155.996 109.195 156.136 108.605 156.136ZM108.605 155.233C109.053 155.233 109.423 155.118 109.713 154.888C110.002 154.658 110.217 154.355 110.356 153.98C110.495 153.605 110.565 153.199 110.565 152.761C110.565 152.324 110.495 151.916 110.356 151.538C110.217 151.161 110.002 150.855 109.713 150.622C109.423 150.389 109.053 150.273 108.605 150.273C108.156 150.273 107.786 150.389 107.497 150.622C107.207 150.855 106.992 151.161 106.853 151.538C106.714 151.916 106.644 152.324 106.644 152.761C106.644 153.199 106.714 153.605 106.853 153.98C106.992 154.355 107.207 154.658 107.497 154.888C107.786 155.118 108.156 155.233 108.605 155.233ZM113.106 156V149.455H114.077V150.443H114.145C114.265 150.119 114.481 149.857 114.793 149.655C115.106 149.453 115.458 149.352 115.85 149.352C115.924 149.352 116.016 149.354 116.127 149.357C116.238 149.359 116.322 149.364 116.378 149.369V150.392C116.344 150.384 116.266 150.371 116.144 150.354C116.025 150.334 115.898 150.324 115.765 150.324C115.447 150.324 115.162 150.391 114.912 150.524C114.665 150.655 114.469 150.837 114.324 151.07C114.182 151.3 114.111 151.562 114.111 151.858V156H113.106ZM120.827 149.455V150.307H117.435V149.455H120.827ZM118.424 147.886H119.43V154.125C119.43 154.409 119.471 154.622 119.553 154.764C119.638 154.903 119.746 154.997 119.877 155.045C120.01 155.091 120.151 155.114 120.299 155.114C120.41 155.114 120.501 155.108 120.572 155.097C120.643 155.082 120.699 155.071 120.742 155.062L120.947 155.966C120.878 155.991 120.783 156.017 120.661 156.043C120.539 156.071 120.384 156.085 120.197 156.085C119.912 156.085 119.634 156.024 119.361 155.902C119.091 155.78 118.867 155.594 118.688 155.344C118.512 155.094 118.424 154.778 118.424 154.398V147.886ZM125.014 156.136C124.383 156.136 123.839 155.997 123.382 155.719C122.927 155.438 122.577 155.045 122.329 154.543C122.085 154.037 121.963 153.449 121.963 152.778C121.963 152.108 122.085 151.517 122.329 151.006C122.577 150.491 122.92 150.091 123.361 149.804C123.804 149.514 124.321 149.369 124.912 149.369C125.253 149.369 125.589 149.426 125.922 149.54C126.254 149.653 126.557 149.838 126.829 150.094C127.102 150.347 127.319 150.682 127.481 151.099C127.643 151.517 127.724 152.031 127.724 152.642V153.068H122.679V152.199H126.702C126.702 151.83 126.628 151.5 126.48 151.21C126.335 150.92 126.128 150.692 125.858 150.524C125.591 150.357 125.275 150.273 124.912 150.273C124.511 150.273 124.165 150.372 123.872 150.571C123.582 150.767 123.359 151.023 123.203 151.338C123.047 151.653 122.969 151.991 122.969 152.352V152.932C122.969 153.426 123.054 153.845 123.224 154.189C123.398 154.53 123.638 154.79 123.944 154.969C124.251 155.145 124.608 155.233 125.014 155.233C125.278 155.233 125.517 155.196 125.73 155.122C125.946 155.045 126.132 154.932 126.288 154.781C126.444 154.628 126.565 154.437 126.65 154.21L127.622 154.483C127.52 154.812 127.348 155.102 127.106 155.352C126.865 155.599 126.567 155.793 126.211 155.932C125.856 156.068 125.457 156.136 125.014 156.136Z" fill="white"/>
<path fill-rule="evenodd" clip-rule="evenodd" d="M103.72 47.0358C92.2002 44.8091 83.4006 42.6891 81.4673 42.2091L81.454 42.0625L81.4406 42.0225C83.4673 41.5958 93.4142 39.7025 104.2 40.6891C123.667 42.4758 121.414 16.2358 105.907 20.7958C111.547 6.0091 89.734 0.075799 85.9873 19.4491C83.7473 31.0491 81.6006 39.8758 81.1473 41.7292C81.1073 41.7158 81.0673 41.7158 81.0273 41.7158L80.974 41.7292C80.5606 39.7158 78.654 29.7692 79.6406 18.9692C81.4273 -0.49751 55.1873 1.75578 59.7473 17.2624C44.9473 11.6224 39.0273 33.4224 58.4006 37.1691C69.9873 39.4224 78.814 41.5558 80.6806 42.0091C80.6673 42.0491 80.654 42.1025 80.6673 42.1425V42.1958C78.614 42.6225 68.6806 44.5158 57.9073 43.5291C38.454 41.7425 40.694 67.9824 56.2006 63.4224C50.5606 78.2091 72.374 84.1291 76.1206 64.7558C78.1073 54.5558 80.0006 46.4891 80.734 43.4358C81.0406 49.4491 80.4273 55.4758 79.1873 61.3424C77.8673 67.6491 75.8806 73.8091 73.8006 79.9425C71.6273 86.0358 69.6273 92.4225 68.8006 99.009C67.9073 105.596 68.054 112.382 69.3473 118.969V118.982L69.3606 119.049C69.6006 120.076 70.6273 120.716 71.654 120.476C72.694 120.223 73.334 119.196 73.094 118.169C71.654 112.036 71.254 105.676 71.8673 99.369C72.1606 96.209 72.694 93.0625 73.4273 89.9558C74.1473 86.8358 75.094 83.7824 76.0273 80.6491C77.8806 74.4091 79.6406 68.1025 80.7206 61.6358C81.6006 56.4625 82.0006 51.1958 81.7606 45.9558C82.4006 50.2225 83.174 57.5158 82.4673 65.2491C80.6806 84.7024 106.934 82.4625 102.374 66.9558C117.16 72.5958 123.094 50.7825 103.72 47.0358Z" fill="white"/>
</svg>
